<?xml version="1.0" encoding="utf-8"?>
<!-- Generator: Adobe Illustrator 24.0.1, SVG Export Plug-In . SVG Version: 6.00 Build 0)  -->
<svg version="1.1" id="Capa_1" xmlns="http://www.w3.org/2000/svg" xmlns:xlink="http://www.w3.org/1999/xlink" x="0px" y="0px"
	 viewBox="0 0 250.2 277" style="enable-background:new 0 0 250.2 277;" xml:space="preserve">

<g>
	<g>
		<path d="M2.2,201.6c0-15.5,4.1-29.1,12.4-41c8.3-11.9,23.1-23.9,44.5-36c-10.1-11.3-17-19.9-20.6-25.7
			c-3.6-5.8-6.5-11.9-8.7-18.2c-2.1-6.3-3.2-12.8-3.2-19.6c0-17.8,5.8-31.8,17.5-41.7c11.7-10,27.9-15,48.7-15
			c19.3,0,34.4,5,45.5,14.9c11.1,9.9,16.6,23.8,16.6,41.5c0,12.7-4,24.5-12.1,35.2c-8.1,10.8-21.5,21.7-40.1,32.7l72.6,69.8
			c6.7-7.4,12-16,16-26c4-9.9,7.3-20.8,10.1-32.6h30c-8.1,34-20.3,59.8-36.6,77.4l53.3,51.9h-40.9l-33-31.8
			c-14,12.6-28.3,21.6-42.8,27.1c-14.5,5.5-30.7,8.2-48.5,8.2c-25.6,0-45.4-6.3-59.5-18.9C9.2,241.2,2.2,223.8,2.2,201.6z
			 M83.5,246.2c28.7,0,52.5-9.2,71.4-27.5l-78-75.6c-13.2,8.1-22.5,14.8-28,20.1c-5.5,5.3-9.5,11-12.1,17c-2.6,6.1-3.9,13-3.9,20.7
			c0,13.9,4.6,24.9,13.8,33.1C55.9,242.1,68.2,246.2,83.5,246.2z M55.9,60.3c0,8.2,2.1,16,6.4,23.5c4.3,7.4,11.6,16.4,21.9,26.9
			c15.3-8.9,26-17.2,32-24.7c6-7.6,9-16.3,9-26.1c0-9.2-3.1-16.6-9.2-22.4c-6.1-5.8-14.3-8.7-24.5-8.7c-10.6,0-19.2,2.9-25.8,8.6
			C59.2,43,55.9,50.6,55.9,60.3z"/>
	</g>
</g>
</svg>
