<?xml version="1.0" encoding="utf-8"?>
<!-- Generator: Adobe Illustrator 24.0.1, SVG Export Plug-In . SVG Version: 6.00 Build 0)  -->
<svg version="1.1" id="Capa_1" xmlns="http://www.w3.org/2000/svg" xmlns:xlink="http://www.w3.org/1999/xlink" x="0px" y="0px"
	 viewBox="0 0 8192 844" style="enable-background:new 0 0 8192 844;" xml:space="preserve">

<style type="text/css">
	.linea{fill:url(#degradez-1);}
</style>

<g>
	<linearGradient id="degradez-1" gradientUnits="userSpaceOnUse" x1="-19.5671" y1="418.912" x2="8210.8203" y2="418.912">
			<stop class="g1" offset="30%"/>
			<stop class="g2" offset="60%"/>
			<stop class="g3" offset="100%"/>
	</linearGradient>

	<path class="linea" d="M7071.4,818.4c-56,0-113.1-0.8-171.3-2.4c-434.3-11.9-934.5-68.2-1486.8-167.1
		c-491.3-88-933.8-194.3-1218.4-267.9c-308.4-79.8-503.2-139.5-505.1-140.1l-0.1,0C3238.6,85.1,2791.6,28.2,2379.1,28.2
		c-479,0-911.4,76.7-1249.9,164.8c-356.7,92.8-649.1,207.6-831.6,287.6C100,567.3-14.7,632.8-15.8,633.5l-3.7-6.5
		c1.1-0.7,116.2-66.4,314.2-153.2c116.3-51,238-99.2,361.8-143.2c154.7-55.1,313.2-103.8,470.9-144.8
		C1528.9,81.3,1928.3,25.5,2314.5,19.9c229.3-3.3,456.5,11.3,675.3,43.3c240.6,35.3,476.9,92.6,702.3,170.4
		c4.4,1.4,198.5,60.8,504.8,140c284.5,73.6,726.8,179.8,1217.9,267.8c867.1,155.4,2055.6,282.3,2793.5,4.9l2.6,7
		c-170.8,64.2-374.5,110.2-605.6,136.8C7442.7,809,7263.7,818.4,7071.4,818.4z"/>
</g>
</svg>
