<?xml version="1.0" encoding="utf-8"?>
<!-- Generator: Adobe Illustrator 24.0.1, SVG Export Plug-In . SVG Version: 6.00 Build 0)  -->
<svg version="1.1" id="Capa_1" xmlns="http://www.w3.org/2000/svg" xmlns:xlink="http://www.w3.org/1999/xlink" x="0px" y="0px"
	 viewBox="0 0 8192 979.1" style="enable-background:new 0 0 8192 979.1;" xml:space="preserve">
<style type="text/css">
	.linea-1{fill:url(#degradez-1);}
	.linea-2{fill:url(#degradez-2);}
	.linea-3{fill:url(#degradez-3);}
</style>

<g>


	<linearGradient id="degradez-1" gradientUnits="userSpaceOnUse" x1="-9.0093" y1="291.0811" x2="8192.1045" y2="291.0811">
		<stop class="g1"  offset="20%"/>
		<stop class="g2"  offset="50%"/>
		<stop class="g3"  offset="100%"/>
	</linearGradient>

	<path class="linea-1" d="M-7.2,577.5l-1.8-7.3C216.4,514,470.3,464,745.8,421.7c335.6-51.5,706.2-91.9,1101.7-120.3
		c472.2-33.8,982.4-50.7,1526.9-50.7c592.4,0,1105.3,20,1774.6,60l0.3,0c1,0.1,224.7,13.2,396.8,24.7
		c158.8,10.6,409.9,21.8,704.6,15.6C6771.1,340,7529.9,270.9,8189.3,4.6l2.8,7c-291.7,117.8-626.9,207.2-996.4,265.7
		c-295.5,46.8-613.5,74.2-945,81.2c-295,6.3-546.4-5-705.3-15.6c-169.4-11.3-392.6-24.1-397-24.7c-709-42.4-1221.1-60.5-1783.6-60.5
		C1685.7,257.8,627.2,419.1-7.2,577.5z"/>


	<linearGradient id="degradez-2" gradientUnits="userSpaceOnUse" x1="-9.2559" y1="704.1266" x2="8192.3955" y2="704.1266">
		<stop class="g1"  offset="20%"/>
		<stop class="g2"  offset="50%"/>
		<stop class="g3"  offset="100%"/>
	</linearGradient>


	<path class="linea-2" d="M1151.5,974.7c-201.1,0-387.9-7-557-21c-230.3-19.1-433.4-51.5-603.7-96.4l1.9-7.3
		c321.7,84.8,729.1,116.4,1157.7,116.4c552.5,0,1140.4-52.5,1626.9-111.6c489.2-59.4,929.7-131.6,1213-181.7
		c307-54.3,500.8-95,502.8-95.4c224.3-53.1,459.6-92.1,699.2-115.8c217.8-21.5,444.1-31,672.7-28c384.9,5,783,44.7,1183.4,118.1
		c356.2,65.3,648.3,145.7,830.6,201.6c197.6,60.6,312.4,106.4,313.5,106.9l-2.8,7c-1.1-0.5-115.8-46.2-313.1-106.7
		c-182.1-55.9-473.9-136.2-829.8-201.4c-342-62.7-780.2-117.6-1264.9-117.6c-406,0-844.7,38.5-1287.1,143.3
		c-2,0.4-195.9,41.2-503,95.5c-283.4,50.1-724,122.3-1213.4,181.7c-550.1,66.8-1048.4,104.2-1481.1,111.2
		C1247.8,974.3,1199.2,974.7,1151.5,974.7z"/>


	<linearGradient id="degradez-3" gradientUnits="userSpaceOnUse" x1="-9.8562" y1="448.1735" x2="8190.3945" y2="448.1735">
		<stop class="g1"  offset="20%"/>
		<stop class="g2"  offset="50%"/>
		<stop class="g3"  offset="100%"/>
	</linearGradient>


	<path class="linea-3" d="M5781.5,718.8c-200.7,0-399-9.6-590.8-28.5c-239.6-23.7-474.8-62.7-699.2-115.8
		c-1.8-0.4-195.6-41.1-502.6-95.4c-283.3-50.1-723.7-122.2-1212.8-181.7C1912.4,192.5,728.3,108.2-7.9,302.2l-1.9-7.3
		c170.3-44.9,373.4-77.3,603.6-96.4c209.2-17.3,445.6-24,702.5-19.8c432.6,7,930.9,44.4,1480.9,111.2
		c489.3,59.4,929.8,131.6,1213.2,181.7c307.1,54.3,500.9,95,502.9,95.4c442.4,104.8,881.1,143.3,1287,143.3
		c484.7,0,922.7-54.9,1264.7-117.6c355.8-65.2,647.5-145.5,829.6-201.4c197.3-60.5,311.9-106.3,313.1-106.7l2.8,7
		c-1.1,0.5-116,46.3-313.5,106.9c-182.3,55.9-474.3,136.3-830.5,201.6c-400.3,73.4-798.4,113.1-1183.2,118.1
		C5836,718.6,5808.7,718.8,5781.5,718.8z"/>


</g>
</svg>
